<?xml version="1.0" encoding="UTF-8" standalone="no"?>
<!-- Created with Inkscape (http://www.inkscape.org/) -->

<svg
   width="211.99957mm"
   height="37.666077mm"
   viewBox="0 0 211.99957 37.666077"
   version="1.1"
   id="svg1"
   xmlns="http://www.w3.org/2000/svg"
   xmlns:svg="http://www.w3.org/2000/svg">
  <defs
     id="defs1" />
  <path
     d="m 25.786506,28.478303 c -0.762,2.032 -1.778,3.81 -2.6416,4.8768 -1.1684,1.3208 -2.6924,1.7272 -6.5532,1.7272 -2.4892,0 -4.318,-0.0508 -5.334,-0.6604 -0.9652,-0.6096 -1.2700002,-1.7272 -1.2700002,-4.1656 v -9.651999 h 4.8768002 c 4.5212,0 4.8768,0.3048 5.588,4.0132 h 1.524 v -9.9568 h -1.524 c -0.6604,3.4544 -0.9652,3.8608 -5.6388,3.8608 H 9.9877058 V 6.8375041 c 0,-1.5239999 0.1016002,-1.6255999 1.7780002,-1.6255999 h 3.8608 c 3.7084,0 5.08,0.3556 5.842,1.4223999 0.7112,1.1684 1.2192,2.3368 1.7272,4.4195999 l 1.5748,-0.2032 c -0.2032,-2.6923999 -0.4572,-6.1975998 -0.508,-7.5183998 H 0.89450594 v 1.524 c 4.01319996,0.3048 4.41959996,0.508 4.41959996,5.1307999 V 30.408703 c 0,4.2164 -0.4064,4.6228 -5.18159995,5.0292 v 1.4732 H 25.532506 c 0.4572,-1.6256 1.4732,-6.4516 1.778,-8.2296 z m 30.124418,5.7404 -1.6256,-0.1524 c -1.9812,-0.1524 -2.3368,-0.4572 -2.3368,-3.2004 V 0.18270422 c -1.9812,0.66039999 -5.5372,1.42239998 -8.3312,1.77799998 v 1.27 c 3.6576,0.3048 3.9624,0.4572 3.9624,3.8099999 v 7.2135999 c -1.2192,-0.4064 -2.6416,-0.5588 -3.4036,-0.5588 -7.112,0 -13.4112,5.6388 -13.4112,12.801599 0,7.2644 5.4864,11.0236 9.7028,11.0236 0.6096,0 1.9812,-0.3048 4.0132,-1.4732 l 3.0988,-1.8796 v 3.3528 c 3.1496,-1.0668 7.2136,-1.7272 8.3312,-1.9304 z m -8.3312,-1.6764 c -1.2192,0.8636 -2.9972,1.6764 -4.7752,1.6764 -3.302,0 -7.112,-2.9464 -7.112,-9.093199 0,-7.5184 4.318,-9.398 6.6548,-9.398 1.8796,0 4.0132,0.8128 5.2324,2.6416 z m 35.356876,1.778 -1.4224,-0.1016 c -1.9304,-0.1016 -2.3876,-0.4572 -2.3876,-3.0988 V 13.949504 c -0.762,0.2032 -2.0828,0.4064 -3.556,0.5588 -1.524,0.2032 -3.302,0.3556 -4.7752,0.4064 v 1.2192 l 1.8288,0.3048 c 1.6764,0.3048 2.1844,0.5588 2.1844,3.3528 v 12.039599 c -1.7272,1.6256 -3.6576,2.3876 -5.4864,2.3876 -2.3368,0 -4.4704,-1.27 -4.4704,-5.7404 v -6.959599 c 0,-3.4544 0,-5.8928 0.1524,-7.5692 -0.9652,0.2032 -2.3876,0.4064 -3.81,0.5588 -1.4732,0.254 -2.794,0.3556 -3.9116,0.4064 v 1.2192 l 1.4732,0.3556 c 1.27,0.254 1.7272,0.5588 1.7272,3.302 v 10.007599 c 0,5.588 2.9464,7.7216 6.5024,7.7216 1.4224,0 2.54,-0.4572 4.0132,-1.3208 1.524,-0.8128 2.5908,-1.778 3.81,-2.6416 v 3.6576 l 0.3556,0.3048 c 1.016,-0.254 2.3368,-0.6604 3.7592,-1.016 1.4224,-0.3556 2.8956,-0.6604 4.0132,-0.8128 z m 21.18362,-3.2512 c -2.3876,2.2352 -4.064,2.794 -6.299202,2.794 -2.844799,0 -7.823199,-2.3368 -7.823199,-9.448799 0,-5.4356 2.9464,-8.1788 6.2484,-8.1788 1.777999,0 3.657599,0.6604 5.232401,2.1844 0.4572,0.4064 0.7112,0.5588 1.016,0.5588 0.6096,0 1.778,-1.1684 1.778,-2.286 0,-0.6096 -0.1524,-1.016 -0.8636,-1.5748 -0.762,-0.7112 -2.54,-1.4224 -4.673602,-1.4224 h -0.0508 c -1.930399,0 -5.079999,0.9144 -7.873999,2.9464 -3.5052,2.6924 -5.2324,6.1468 -5.2324,10.109199 0,5.5372 3.9116,10.7696 10.5664,10.7696 3.047999,0 6.553201,-2.2352 8.839201,-5.334 z m 24.48558,3.7592 -0.5588,-1.3208 c -0.508,0.254 -1.2192,0.508 -1.8288,0.508 -0.9144,0 -1.8796,-0.7112 -1.8796,-3.0988 v -9.397999 c 0,-2.7432 -0.508,-4.8768 -2.3368,-6.4008 -1.2192,-0.9652 -2.7432,-1.4224 -4.3688,-1.4224 -2.8956,0.6096 -6.35,2.5908 -7.874,3.6576 -1.016,0.762 -1.6256,1.3716 -1.6256,2.0828 0,1.2192 1.3208,2.286 2.286,2.286 0.8636,0 1.3716,-0.4064 1.6256,-1.27 0.4572,-1.5748 0.9144,-2.7432 1.524,-3.4544 0.5588,-0.5588 1.3716,-0.9144 2.286,-0.9144 2.5908,0 4.318,2.032 4.318,5.7404 v 0.9144 c -1.1684,0.9144 -4.8768,2.3368 -8.0772,3.3528 -2.8956,0.965199 -4.2164,2.590799 -4.2164,5.079999 0,3.2512 2.54,6.35 6.2992,6.35 1.5748,0 4.064,-1.8796 6.096,-3.2512 0.2032,0.8128 0.5588,1.5748 1.27,2.2352 0.5588,0.5588 1.6764,1.016 2.4892,1.016 z m -8.4328,-2.2352 c -0.9652,0.9144 -2.7432,1.7272 -4.0132,1.7272 -1.524,0 -3.6068,-1.2192 -3.6068,-3.9116 0,-1.8796 1.1176,-2.8956 3.1496,-3.81 1.0668,-0.507999 3.3528,-1.473199 4.4704,-2.082799 z m 23.4696,2.3876 -0.508,-1.3208 c -0.7112,0.3556 -1.8796,0.8128 -3.0988,0.8128 -1.3716,0 -3.0988,-0.7112 -3.0988,-4.8768 V 16.438704 h 5.4864 c 0.6604,-0.4064 0.8128,-1.524 0.3048,-2.1336 H 136.937 V 7.1931041 l -0.762,-0.1524 -3.6068,3.5559999 v 3.7084 h -2.286 l -1.4732,1.5748 0.2032,0.5588 h 3.556 v 14.884399 c 0,4.2164 1.9304,6.1976 5.2832,6.1976 0.4572,0 1.27,-0.2032 2.1844,-0.6604 z m 7.67079,-25.6539989 c 1.5748,0 2.7432,-1.27 2.7432,-2.7432 0,-1.5747999 -1.1684,-2.7939999 -2.6924,-2.7939999 -1.4732,0 -2.794,1.2192 -2.794,2.7939999 0,1.4732 1.3208,2.7432 2.7432,2.7432 z m 6.1976,27.5843989 v -1.3716 c -3.3528,-0.3048 -3.7084,-0.6604 -3.7084,-4.1656 V 13.593904 c -2.286,0.9144 -4.8768,1.6256 -7.5184,2.032 v 1.27 c 2.9972,0.4572 3.2004,0.7112 3.2004,3.9116 v 10.566399 c 0,3.556 -0.4064,3.8608 -3.6576,4.1656 v 1.3716 z m 14.22403,-23.215599 c -4.826,0 -11.5316,3.9116 -11.5316,12.445999 0,5.7404 4.2164,11.3792 11.5316,11.3792 5.1816,0 11.3792,-3.9624 11.3792,-12.242799 0,-6.35 -4.826,-11.5824 -11.3284,-11.5824 z m -0.5588,1.778 c 4.4196,0 6.858,4.7752 6.858,10.921999 0,7.1628 -2.6416,9.398 -5.7404,9.398 -4.2164,0 -7.0104,-4.8768 -7.0104,-11.379199 0,-5.7912 2.794,-8.9408 5.842,-8.9408 z m 40.69085,21.437599 v -1.3716 c -2.9972,-0.3048 -3.302,-0.5588 -3.302,-4.064 v -9.804399 c 0,-5.0292 -2.5908,-7.9756 -6.7564,-7.9756 -1.4732,0 -2.794,0.6096 -4.2672,1.6256 -1.3208,0.8128 -2.4384,1.6256 -3.5052,2.3876 v -4.1656 c -2.3368,1.0668 -4.9276,1.6764 -7.4168,2.1336 v 1.2192 c 2.7432,0.508 3.0988,0.6604 3.0988,4.0132 v 10.566399 c 0,3.4036 -0.3048,3.6576 -3.81,4.064 v 1.3716 h 11.4808 v -1.3716 c -3.048,-0.3048 -3.3528,-0.5588 -3.3528,-4.064 V 19.435904 c 1.5748,-1.27 3.556,-2.54 5.5372,-2.54 3.302,0 4.6736,2.2352 4.6736,5.7912 v 8.534399 c 0,3.6068 -0.3556,4.0132 -3.3528,4.318 v 1.3716 z"
     id="text86"
     style="font-size:192px;font-family:'Adobe Hebrew';-inkscape-font-specification:'Adobe Hebrew';white-space:pre;fill:#ffffff;stroke:#000000;stroke-width:0.264999;stroke-dasharray:0.264999, 0.794996"
     aria-label="Education " />
</svg>
