<?xml version="1.0" encoding="UTF-8" standalone="no"?>
<!-- Created with Inkscape (http://www.inkscape.org/) -->

<svg
   width="231.14909mm"
   height="46.238995mm"
   viewBox="0 0 231.14909 46.238995"
   version="1.1"
   id="svg1"
   xmlns="http://www.w3.org/2000/svg"
   xmlns:svg="http://www.w3.org/2000/svg">
  <defs
     id="defs1" />
  <path
     d="m 25.786509,25.278498 c -0.762,2.032 -1.778,3.81 -2.6416,4.8768 -1.1684,1.3208 -2.6924,1.7272 -6.5532,1.7272 -2.4892,0 -4.318,-0.0508 -5.334,-0.6604 -0.9652,-0.6096 -1.2699997,-1.7272 -1.2699997,-4.1656 v -9.652 h 4.8767997 c 4.5212,0 4.8768,0.3048 5.588,4.0132 h 1.524 v -9.956799 h -1.524 c -0.6604,3.4544 -0.9652,3.8608 -5.6388,3.8608 H 9.9877093 V 3.6376995 c 0,-1.524 0.1015997,-1.6256 1.7779997,-1.6256 h 3.8608 c 3.7084,0 5.08,0.3556 5.842,1.4224 0.7112,1.1684 1.2192,2.3367999 1.7272,4.4195999 l 1.5748,-0.2032 c -0.2032,-2.6924 -0.4572,-6.1975999 -0.508,-7.51839989 H 0.8945094 V 1.6564995 c 4.0131999,0.3048 4.4195999,0.508 4.4195999,5.1307999 V 27.208898 c 0,4.2164 -0.4064,4.6228 -5.18159989,5.0292 v 1.4732 H 25.532509 c 0.4572,-1.6256 1.4732,-6.4516 1.778,-8.2296 z m 27.787647,8.4328 v -1.3716 c -3.0988,-0.4572 -3.7592,-0.9652 -5.6388,-3.7592 l -5.1816,-7.7724 c 1.778,-2.4384 3.048,-4.267199 4.1148,-5.537199 1.8796,-2.1844 2.54,-2.4384 5.6896,-2.794 v -1.3716 h -9.5504 v 1.3716 c 2.286,0.3048 2.6416,0.5588 1.7272,2.1336 -0.9652,1.6764 -1.9304,3.200399 -2.946399,4.775199 l -3.048,-4.724399 c -0.9652,-1.4224 -0.762,-1.8288 1.3716,-2.1844 v -1.3716 h -10.5664 v 1.3716 c 2.8956,0.4064 3.5052,0.8128 5.1308,3.302 l 4.5212,7.061199 c -1.524,2.2352 -2.9464,4.318 -4.4196,6.1468 -2.032,2.4892 -2.6416,2.8956 -5.842,3.3528 v 1.3716 h 9.7536 v -1.3716 c -2.6416,-0.4572 -2.794,-0.9144 -1.8288,-2.6416 1.016,-1.778 2.1844,-3.6576 3.302,-5.334 l 3.809999,5.8928 c 0.9144,1.3716 0.4572,1.8288 -1.7272,2.0828 v 1.3716 z M 62.413388,14.102499 V 9.9876994 c -2.54,0.9651996 -5.5372,1.9303996 -7.7724,2.2859996 v 1.27 c 3.1496,0.3556 3.4036,0.508 3.4036,3.809999 v 23.3172 c 0,3.4036 -0.4064,3.7084 -3.7592,4.0132 v 1.4224 h 12.5476 v -1.4224 c -4.0132,-0.3556 -4.4196,-0.6604 -4.4196,-4.4704 v -6.8072 c 0.7112,0.4064 2.032,0.8636 3.6068,0.9144 6.7564,-1.27 12.9032,-6.2992 12.9032,-14.0208 0,-5.079999 -3.4544,-9.804399 -9.1948,-9.804399 -0.6604,0 -1.6764,0.3048 -2.6416,0.9144 z m 0,1.7272 c 1.3716,-0.9652 3.4544,-2.1336 5.0292,-2.1336 3.6576,0 6.9088,3.048 6.9088,8.686799 0,5.588 -2.794,9.3472 -7.112,9.3472 -1.6764,0 -3.7084,-0.8128 -4.826,-1.9304 z m 38.811232,12.293599 c -1.879603,1.7272 -3.860803,2.54 -5.943603,2.54 -3.6576,0 -7.62,-2.8448 -7.7216,-9.7028 6.1468,-0.2032 12.598403,-0.7112 13.512803,-0.8636 0.9652,-0.2032 1.1684,-0.6096 1.2192,-1.6256 0,-4.114799 -3.505203,-7.975599 -7.874003,-7.975599 h -0.0508 c -2.6924,0 -5.5372,1.4732 -7.6708,3.8608 -2.1336,2.3368 -3.4036,5.486399 -3.4036,8.991599 0,5.842 3.7592,10.9728 10.16,10.9728 1.6256,0 5.2832,-0.9144 8.585203,-5.08 z M 93.147417,12.476899 c 2.794,0 4.5212,2.4892 4.5212,5.181599 -0.0508,0.762 -0.3556,1.016 -1.27,1.016 -2.8956,0.1016 -5.7404,0.1524 -8.5344,0.1524 0.7112,-4.267199 2.9972,-6.349999 5.2324,-6.349999 z m 20.015213,3.6068 v -5.6896 c -2.54,1.0668 -4.9784,1.6764 -7.5184,2.0828 v 1.1684 c 2.8956,0.4064 3.2004,0.6096 3.2004,3.962399 v 10.7188 c 0,3.4036 -0.4064,3.7592 -3.6576,4.0132 v 1.3716 h 12.2936 v -1.3716 c -4.064,-0.254 -4.318,-0.6096 -4.318,-4.064 v -9.2964 c 1.1176,-2.844799 2.794,-4.368799 4.064,-4.368799 0.8636,0 1.4224,0.3556 2.286,1.1176 0.3048,0.3048 0.762,0.3556 1.3716,0.1016 1.016,-0.4572 1.778,-1.5748 1.778,-2.6924 0,-1.2192 -1.27,-2.6416 -3.0988,-2.6416 -2.4384,0 -4.6736,2.8448 -6.2484,5.588 z m 17.272,-9.9567996 c 1.5748,0 2.7432,-1.27 2.7432,-2.7431999 0,-1.5748 -1.1684,-2.794 -2.6924,-2.794 -1.4732,0 -2.794,1.2192 -2.794,2.794 0,1.4731999 1.3208,2.7431999 2.7432,2.7431999 z m 6.1976,27.5843986 v -1.3716 c -3.3528,-0.3048 -3.7084,-0.6604 -3.7084,-4.1656 V 10.394099 c -2.286,0.9144 -4.8768,1.6256 -7.5184,2.032 v 1.27 c 2.9972,0.4572 3.2004,0.7112 3.2004,3.911599 v 10.5664 c 0,3.556 -0.4064,3.8608 -3.6576,4.1656 v 1.3716 z m 20.62483,-5.588 c -1.8796,1.7272 -3.8608,2.54 -5.9436,2.54 -3.6576,0 -7.62,-2.8448 -7.7216,-9.7028 6.1468,-0.2032 12.5984,-0.7112 13.5128,-0.8636 0.9652,-0.2032 1.1684,-0.6096 1.2192,-1.6256 0,-4.114799 -3.5052,-7.975599 -7.874,-7.975599 h -0.0508 c -2.6924,0 -5.5372,1.4732 -7.6708,3.8608 -2.1336,2.3368 -3.4036,5.486399 -3.4036,8.991599 0,5.842 3.7592,10.9728 10.16,10.9728 1.6256,0 5.2832,-0.9144 8.5852,-5.08 z m -8.0772,-15.646399 c 2.794,0 4.5212,2.4892 4.5212,5.181599 -0.0508,0.762 -0.3556,1.016 -1.27,1.016 -2.8956,0.1016 -5.7404,0.1524 -8.5344,0.1524 0.7112,-4.267199 2.9972,-6.349999 5.2324,-6.349999 z m 37.846,21.234399 v -1.3716 c -2.9972,-0.3048 -3.302,-0.5588 -3.302,-4.064 v -9.8044 c 0,-5.029199 -2.5908,-7.975599 -6.7564,-7.975599 -1.4732,0 -2.794,0.6096 -4.2672,1.6256 -1.3208,0.8128 -2.4384,1.6256 -3.5052,2.3876 v -4.1656 c -2.3368,1.0668 -4.9276,1.6764 -7.4168,2.1336 v 1.2192 c 2.7432,0.508 3.0988,0.6604 3.0988,4.013199 v 10.5664 c 0,3.4036 -0.3048,3.6576 -3.81,4.064 v 1.3716 h 11.4808 v -1.3716 c -3.048,-0.3048 -3.3528,-0.5588 -3.3528,-4.064 V 16.236099 c 1.5748,-1.27 3.556,-2.54 5.5372,-2.54 3.302,0 4.6736,2.2352 4.6736,5.791199 v 8.5344 c 0,3.6068 -0.3556,4.0132 -3.3528,4.318 v 1.3716 z m 21.48837,-5.842 c -2.3876,2.2352 -4.064,2.794 -6.2992,2.794 -2.8448,0 -7.8232,-2.3368 -7.8232,-9.4488 0,-5.435599 2.9464,-8.178799 6.2484,-8.178799 1.778,0 3.6576,0.6604 5.2324,2.1844 0.4572,0.4064 0.7112,0.5588 1.016,0.5588 0.6096,0 1.778,-1.1684 1.778,-2.286 0,-0.6096 -0.1524,-1.016 -0.8636,-1.5748 -0.762,-0.7112 -2.54,-1.4224 -4.6736,-1.4224 h -0.0508 c -1.9304,0 -5.08,0.9144 -7.874,2.9464 -3.5052,2.6924 -5.2324,6.146799 -5.2324,10.109199 0,5.5372 3.9116,10.7696 10.5664,10.7696 3.048,0 6.5532,-2.2352 8.8392,-5.334 z m 21.4376,0.254 c -1.8796,1.7272 -3.8608,2.54 -5.9436,2.54 -3.6576,0 -7.62,-2.8448 -7.7216,-9.7028 6.1468,-0.2032 12.5984,-0.7112 13.5128,-0.8636 0.9652,-0.2032 1.1684,-0.6096 1.2192,-1.6256 0,-4.114799 -3.5052,-7.975599 -7.874,-7.975599 h -0.0508 c -2.6924,0 -5.5372,1.4732 -7.6708,3.8608 -2.1336,2.3368 -3.4036,5.486399 -3.4036,8.991599 0,5.842 3.7592,10.9728 10.16,10.9728 1.6256,0 5.2832,-0.9144 8.5852,-5.08 z m -8.0772,-15.646399 c 2.794,0 4.5212,2.4892 4.5212,5.181599 -0.0508,0.762 -0.3556,1.016 -1.27,1.016 -2.8956,0.1016 -5.7404,0.1524 -8.5344,0.1524 0.7112,-4.267199 2.9972,-6.349999 5.2324,-6.349999 z"
     id="text87"
     style="font-size:192px;font-family:'Adobe Hebrew';-inkscape-font-specification:'Adobe Hebrew';white-space:pre;fill:#ffffff;stroke:#000000;stroke-width:0.264999;stroke-dasharray:0.264999, 0.794996"
     aria-label="Experience" />
</svg>
