<?xml version="1.0" encoding="UTF-8" standalone="no"?>
<!-- Created with Inkscape (http://www.inkscape.org/) -->

<svg
   width="164.80632mm"
   height="47.153378mm"
   viewBox="0 0 164.80632 47.153377"
   version="1.1"
   id="svg1"
   xmlns="http://www.w3.org/2000/svg"
   xmlns:svg="http://www.w3.org/2000/svg">
  <defs
     id="defs1" />
  <path
     d="M 0.43729658,0.13249684 V 1.6564968 c 3.86079992,0.254 4.26719992,0.4572 4.26719992,5.0292 V 27.208898 c 0,4.267199 -0.4064,4.673599 -4.57199991,5.079999 v 1.4224 H 14.508896 v -1.4224 c -4.7243995,-0.4064 -5.1815995,-0.6604 -5.1815995,-5.029199 v -8.0264 l 3.8607995,1.016 c 0.6096,0.0508 1.5748,0.0508 2.3876,-0.0508 5.1308,-0.6096 10.16,-3.8608 10.16,-10.6172013 0,-3.3527999 -1.3208,-5.7911999 -3.4036,-7.3151999 -2.0828,-1.52399997 -5.0292,-2.13359996 -8.7376,-2.13359996 z M 9.3272965,4.8568968 c 0,-1.4732 0.1524,-2.0828 0.5588,-2.3876 0.3555995,-0.3556 1.4223995,-0.6096 2.8447995,-0.6096 4.1656,0 7.7724,2.286 7.7724,7.9247999 0,6.6040013 -4.1656,8.3312013 -7.4676,8.3312013 -1.6256,0 -3.0479995,-0.3556 -3.7083995,-0.6096 z M 36.810064,16.083698 v -5.689601 c -2.54,1.0668 -4.9784,1.6764 -7.5184,2.0828 v 1.1684 c 2.8956,0.4064 3.2004,0.6096 3.2004,3.962401 v 10.7188 c 0,3.403599 -0.4064,3.759199 -3.6576,4.013199 v 1.3716 h 12.2936 v -1.3716 c -4.064,-0.254 -4.318,-0.6096 -4.318,-4.063999 v -9.2964 c 1.1176,-2.8448 2.794,-4.368801 4.064,-4.368801 0.8636,0 1.4224,0.3556 2.286,1.117601 0.3048,0.3048 0.762,0.3556 1.3716,0.1016 1.016,-0.4572 1.778,-1.574801 1.778,-2.692401 0,-1.2192 -1.27,-2.6416 -3.0988,-2.6416 -2.4384,0 -4.6736,2.8448 -6.2484,5.588001 z m 22.758485,-5.588001 c -4.826,0 -11.5316,3.9116 -11.5316,12.446001 0,5.7404 4.2164,11.379199 11.5316,11.379199 5.1816,0 11.3792,-3.962399 11.3792,-12.242799 0,-6.35 -4.826,-11.582401 -11.3284,-11.582401 z m -0.5588,1.778 c 4.4196,0 6.858,4.775201 6.858,10.922001 0,7.1628 -2.6416,9.397999 -5.7404,9.397999 -4.2164,0 -7.0104,-4.876799 -7.0104,-11.379199 0,-5.7912 2.794,-8.940801 5.842,-8.940801 z m 20.42161,-6.1468002 c 1.5748,0 2.7432,-1.2192 2.7432,-2.7432 0,-1.5748 -1.1684,-2.79399997 -2.6924,-2.79399997 -1.4732,0 -2.7432,1.21919997 -2.7432,2.79399997 0,1.524 1.27,2.7432 2.6924,2.7432 z m -5.2832,7.5184002 c 3.1496,0.4572 3.5052,0.6604 3.5052,4.165601 v 9.906 c 0,4.724399 -0.1524,7.823199 -0.4572,10.058399 -0.254,1.879601 -0.6604,2.9972 -1.2192,3.7592 -0.6604,0.9652 -2.032,1.524 -3.81,1.8796 -0.7112,0.1524 -1.0668,0.5588 -1.0668,1.2192 0,1.3208 1.1684,2.3876 1.8288,2.3876 0.4572,0 0.8636,-0.2032 1.4224,-0.6096 1.2192,-1.0668 4.572,-5.0292 6.4008,-10.16 1.016,-2.7432 1.2192,-4.927599 1.2192,-8.381999 V 10.394097 c -2.3368,0.9144 -5.08,1.6764 -7.8232,2.032 z m 31.800821,14.478001 c -1.8796,1.7272 -3.8608,2.54 -5.9436,2.54 -3.657597,0 -7.619997,-2.8448 -7.721597,-9.7028 6.1468,-0.2032 12.598397,-0.7112 13.512797,-0.8636 0.9652,-0.2032 1.1684,-0.6096 1.2192,-1.6256 0,-4.114801 -3.5052,-7.975601 -7.873997,-7.975601 h -0.0508 c -2.6924,0 -5.5372,1.4732 -7.6708,3.8608 -2.1336,2.336801 -3.4036,5.486401 -3.4036,8.991601 0,5.842 3.7592,10.972799 10.16,10.972799 1.6256,0 5.283197,-0.9144 8.585197,-5.079999 z M 97.871783,12.476897 c 2.793997,0 4.521197,2.4892 4.521197,5.181601 -0.0508,0.762 -0.3556,1.016 -1.27,1.016 -2.895597,0.1016 -5.740397,0.1524 -8.534397,0.1524 0.7112,-4.267201 2.9972,-6.350001 5.2324,-6.350001 z m 31.191237,15.392401 c -2.3876,2.2352 -4.064,2.794 -6.2992,2.794 -2.8448,0 -7.8232,-2.3368 -7.8232,-9.4488 0,-5.4356 2.9464,-8.178801 6.2484,-8.178801 1.778,0 3.6576,0.6604 5.2324,2.184401 0.4572,0.4064 0.7112,0.5588 1.016,0.5588 0.6096,0 1.778,-1.168401 1.778,-2.286001 0,-0.6096 -0.1524,-1.016 -0.8636,-1.5748 -0.762,-0.7112 -2.54,-1.4224 -4.6736,-1.4224 h -0.0508 c -1.9304,0 -5.08,0.9144 -7.874,2.9464 -3.5052,2.692401 -5.2324,6.146801 -5.2324,10.109201 0,5.5372 3.9116,10.769599 10.5664,10.769599 3.048,0 6.5532,-2.2352 8.8392,-5.333999 z m 17.62759,3.911599 -0.508,-1.320799 c -0.7112,0.3556 -1.8796,0.8128 -3.0988,0.8128 -1.3716,0 -3.0988,-0.7112 -3.0988,-4.8768 V 13.238897 h 5.4864 c 0.6604,-0.4064 0.8128,-1.524 0.3048,-2.1336 h -5.7912 V 3.9932968 l -0.762,-0.1524 -3.60679,3.5559999 v 3.7084003 h -2.286 l -1.4732,1.5748 0.2032,0.5588 h 3.556 v 14.884401 c 0,4.216399 1.9304,6.197599 5.28319,6.197599 0.4572,0 1.27,-0.2032 2.1844,-0.6604 z m 17.0688,-14.833599 c -0.1016,-1.2192 -0.6604,-4.368801 -1.1176,-5.486401 -1.1176,-0.508 -2.4892,-0.9652 -4.7244,-0.9652 -4.826,0 -7.9248,3.0988 -7.9248,6.756401 0,4.0132 3.4544,5.7912 6.5532,7.1628 2.6416,1.27 4.064,2.4384 4.064,4.6736 0,2.0828 -1.778,3.505199 -3.6068,3.505199 -3.1496,0 -5.4864,-2.997199 -6.4008,-6.451599 l -1.4224,0.2032 c 0.0508,1.9304 0.508,5.537199 0.8636,6.299199 0.9144,0.7112 3.3528,1.6764 6.0452,1.6764 4.1656,0 8.5852,-2.4384 8.5852,-7.162799 0,-3.6576 -2.6416,-5.5372 -6.604,-7.112 -2.286,-0.9144 -4.318,-2.1844 -4.318,-4.3688 0,-2.032001 1.3208,-3.454401 3.302,-3.454401 2.54,0 4.318,2.032 5.334,5.080001 z"
     id="text86"
     style="font-size:192px;font-family:'Adobe Hebrew';-inkscape-font-specification:'Adobe Hebrew';white-space:pre;fill:#ffffff;stroke:#000000;stroke-width:0.264999;stroke-dasharray:0.264999, 0.794996"
     aria-label="Projects" />
</svg>
